<?xml version="1.0" encoding="UTF-8"?>
<svg xmlns="http://www.w3.org/2000/svg" xmlns:xlink="http://www.w3.org/1999/xlink" width="810pt" height="809.999993pt" viewBox="0 0 810 809.999993" version="1.2">
<defs>
<clipPath id="clip1">
  <path d="M 120 121 L 673 121 L 673 739 L 120 739 Z M 120 121 "/>
</clipPath>
<clipPath id="clip2">
  <path d="M 263.242188 41.675781 L 739.523438 204.207031 L 546.957031 768.507812 L 70.675781 605.976562 Z M 263.242188 41.675781 "/>
</clipPath>
<clipPath id="clip3">
  <path d="M 263.242188 41.675781 L 739.523438 204.207031 L 546.957031 768.507812 L 70.675781 605.976562 Z M 263.242188 41.675781 "/>
</clipPath>
<clipPath id="clip4">
  <path d="M 416 194 L 729 194 L 729 499 L 416 499 Z M 416 194 "/>
</clipPath>
<clipPath id="clip5">
  <path d="M 263.242188 41.675781 L 739.523438 204.207031 L 546.957031 768.507812 L 70.675781 605.976562 Z M 263.242188 41.675781 "/>
</clipPath>
<clipPath id="clip6">
  <path d="M 263.242188 41.675781 L 739.523438 204.207031 L 546.957031 768.507812 L 70.675781 605.976562 Z M 263.242188 41.675781 "/>
</clipPath>
<clipPath id="clip7">
  <path d="M 368 255 L 570 255 L 570 347 L 368 347 Z M 368 255 "/>
</clipPath>
<clipPath id="clip8">
  <path d="M 263.242188 41.675781 L 739.523438 204.207031 L 546.957031 768.507812 L 70.675781 605.976562 Z M 263.242188 41.675781 "/>
</clipPath>
<clipPath id="clip9">
  <path d="M 263.242188 41.675781 L 739.523438 204.207031 L 546.957031 768.507812 L 70.675781 605.976562 Z M 263.242188 41.675781 "/>
</clipPath>
<clipPath id="clip10">
  <path d="M 343 327 L 545 327 L 545 418 L 343 418 Z M 343 327 "/>
</clipPath>
<clipPath id="clip11">
  <path d="M 263.242188 41.675781 L 739.523438 204.207031 L 546.957031 768.507812 L 70.675781 605.976562 Z M 263.242188 41.675781 "/>
</clipPath>
<clipPath id="clip12">
  <path d="M 263.242188 41.675781 L 739.523438 204.207031 L 546.957031 768.507812 L 70.675781 605.976562 Z M 263.242188 41.675781 "/>
</clipPath>
<clipPath id="clip13">
  <path d="M 318 400 L 520 400 L 520 492 L 318 492 Z M 318 400 "/>
</clipPath>
<clipPath id="clip14">
  <path d="M 263.242188 41.675781 L 739.523438 204.207031 L 546.957031 768.507812 L 70.675781 605.976562 Z M 263.242188 41.675781 "/>
</clipPath>
<clipPath id="clip15">
  <path d="M 263.242188 41.675781 L 739.523438 204.207031 L 546.957031 768.507812 L 70.675781 605.976562 Z M 263.242188 41.675781 "/>
</clipPath>
<clipPath id="clip16">
  <path d="M 297 463 L 499 463 L 499 554 L 297 554 Z M 297 463 "/>
</clipPath>
<clipPath id="clip17">
  <path d="M 263.242188 41.675781 L 739.523438 204.207031 L 546.957031 768.507812 L 70.675781 605.976562 Z M 263.242188 41.675781 "/>
</clipPath>
<clipPath id="clip18">
  <path d="M 263.242188 41.675781 L 739.523438 204.207031 L 546.957031 768.507812 L 70.675781 605.976562 Z M 263.242188 41.675781 "/>
</clipPath>
<clipPath id="clip19">
  <path d="M 274 529 L 476 529 L 476 620 L 274 620 Z M 274 529 "/>
</clipPath>
<clipPath id="clip20">
  <path d="M 263.242188 41.675781 L 739.523438 204.207031 L 546.957031 768.507812 L 70.675781 605.976562 Z M 263.242188 41.675781 "/>
</clipPath>
<clipPath id="clip21">
  <path d="M 263.242188 41.675781 L 739.523438 204.207031 L 546.957031 768.507812 L 70.675781 605.976562 Z M 263.242188 41.675781 "/>
</clipPath>
</defs>
<g id="surface1">
<g clip-path="url(#clip1)" clip-rule="nonzero">
<g clip-path="url(#clip2)" clip-rule="nonzero">
<g clip-path="url(#clip3)" clip-rule="nonzero">
<path style=" stroke:none;fill-rule:nonzero;fill:rgb(100%,87.059021%,34.899902%);fill-opacity:1;" d="M 510.886719 684.398438 C 503.667969 705.554688 480.578125 716.890625 459.414062 709.667969 L 186.589844 616.566406 C 165.402344 609.335938 154.03125 586.242188 161.25 565.085938 L 182.773438 502.011719 L 209.4375 511.113281 C 218.046875 514.050781 228.492188 506.265625 232.789062 493.671875 C 237.0625 481.148438 233.5625 468.585938 224.953125 465.648438 L 198.289062 456.546875 L 219.914062 393.179688 L 246.578125 402.28125 C 255.1875 405.21875 265.636719 397.414062 269.910156 384.890625 C 274.195312 372.335938 270.703125 359.753906 262.09375 356.816406 L 235.425781 347.714844 L 258.695312 279.53125 L 285.359375 288.632812 C 293.96875 291.570312 304.417969 283.765625 308.699219 271.222656 C 312.984375 258.667969 309.484375 246.105469 300.875 243.167969 L 274.210938 234.070312 L 294.078125 175.84375 C 301.300781 154.675781 324.421875 143.351562 345.605469 150.582031 L 618.433594 243.683594 C 639.597656 250.90625 650.9375 273.988281 643.714844 295.160156 Z M 627.152344 218.132812 L 354.324219 125.03125 C 319.027344 112.988281 280.5625 131.863281 268.527344 167.125 L 248.660156 225.347656 L 221.148438 215.960938 C 212.566406 213.03125 202.109375 220.832031 197.824219 233.386719 C 193.542969 245.929688 197.050781 258.496094 205.632812 261.425781 L 233.144531 270.8125 L 209.875 338.996094 L 182.367188 329.609375 C 173.785156 326.679688 163.320312 334.5 159.035156 347.054688 C 154.761719 359.578125 158.269531 372.144531 166.851562 375.074219 L 194.363281 384.460938 L 172.738281 447.828125 L 145.226562 438.441406 C 136.644531 435.511719 126.1875 443.3125 121.914062 455.835938 C 117.617188 468.429688 121.128906 480.976562 129.714844 483.90625 L 157.222656 493.292969 L 135.699219 556.367188 C 123.667969 591.625 142.566406 630.089844 177.863281 642.132812 L 450.691406 735.234375 C 485.933594 747.261719 524.421875 728.382812 536.457031 693.125 L 669.285156 303.882812 C 681.316406 268.621094 662.394531 230.160156 627.152344 218.132812 "/>
</g>
</g>
</g>
<g clip-path="url(#clip4)" clip-rule="nonzero">
<g clip-path="url(#clip5)" clip-rule="nonzero">
<g clip-path="url(#clip6)" clip-rule="nonzero">
<path style=" stroke:none;fill-rule:nonzero;fill:rgb(100%,87.059021%,34.899902%);fill-opacity:1;" d="M 724.863281 238.109375 C 731.109375 228.921875 728.800781 214.605469 718.773438 204.300781 C 708.773438 194.03125 694.527344 191.296875 685.171875 197.304688 L 684.910156 196.992188 L 431.535156 443.226562 L 416.160156 498.984375 L 471.71875 484.582031 L 725.085938 238.371094 L 724.863281 238.109375 "/>
</g>
</g>
</g>
<g clip-path="url(#clip7)" clip-rule="nonzero">
<g clip-path="url(#clip8)" clip-rule="nonzero">
<g clip-path="url(#clip9)" clip-rule="nonzero">
<path style=" stroke:none;fill-rule:nonzero;fill:rgb(100%,87.059021%,34.899902%);fill-opacity:1;" d="M 376.359375 255.714844 L 368.003906 280.195312 L 560.9375 346.035156 L 569.292969 321.554688 L 376.359375 255.714844 "/>
</g>
</g>
</g>
<g clip-path="url(#clip10)" clip-rule="nonzero">
<g clip-path="url(#clip11)" clip-rule="nonzero">
<g clip-path="url(#clip12)" clip-rule="nonzero">
<path style=" stroke:none;fill-rule:nonzero;fill:rgb(100%,87.059021%,34.899902%);fill-opacity:1;" d="M 343.648438 351.570312 L 536.582031 417.410156 L 544.949219 392.894531 L 352.015625 327.054688 L 343.648438 351.570312 "/>
</g>
</g>
</g>
<g clip-path="url(#clip13)" clip-rule="nonzero">
<g clip-path="url(#clip14)" clip-rule="nonzero">
<g clip-path="url(#clip15)" clip-rule="nonzero">
<path style=" stroke:none;fill-rule:nonzero;fill:rgb(100%,87.059021%,34.899902%);fill-opacity:1;" d="M 318.503906 425.246094 L 511.4375 491.085938 L 519.800781 466.589844 L 326.867188 400.75 L 318.503906 425.246094 "/>
</g>
</g>
</g>
<g clip-path="url(#clip16)" clip-rule="nonzero">
<g clip-path="url(#clip17)" clip-rule="nonzero">
<g clip-path="url(#clip18)" clip-rule="nonzero">
<path style=" stroke:none;fill-rule:nonzero;fill:rgb(100%,87.059021%,34.899902%);fill-opacity:1;" d="M 297.105469 487.964844 L 490.039062 553.804688 L 498.398438 529.304688 L 305.464844 463.464844 L 297.105469 487.964844 "/>
</g>
</g>
</g>
<g clip-path="url(#clip19)" clip-rule="nonzero">
<g clip-path="url(#clip20)" clip-rule="nonzero">
<g clip-path="url(#clip21)" clip-rule="nonzero">
<path style=" stroke:none;fill-rule:nonzero;fill:rgb(100%,87.059021%,34.899902%);fill-opacity:1;" d="M 274.5625 554.015625 L 467.496094 619.855469 L 475.851562 595.367188 L 282.917969 529.53125 L 274.5625 554.015625 "/>
</g>
</g>
</g>
</g>
</svg>
